<svg width="255" height="108" viewBox="0 0 255 108" fill="none" xmlns="http://www.w3.org/2000/svg">
<path d="M39.632 92.304V24.336L35.664 24.08C35.3227 24.08 34.9813 24.08 34.64 24.08C30.544 24.08 27.0453 25.0613 24.144 27.024C21.2427 28.9867 19.792 31.9733 19.792 35.984C19.792 37.6053 20.048 39.0133 20.56 40.208L19.536 40.976C18.5973 39.952 18.128 38.2027 18.128 35.728C18.128 33.168 19.024 30.736 20.816 28.432C22.608 26.128 24.912 24.592 27.728 23.824C27.8133 23.824 28.7947 23.696 30.672 23.44V23.184L27.728 23.312C19.536 22.288 12.88 19.984 7.76 16.4C2.64 12.7307 0.0799999 7.48266 0.0799999 0.655998L1.616 0.527992C1.616 4.45333 2.59733 7.86666 4.56 10.768C6.52267 13.584 9.21067 15.8027 12.624 17.424C18.9387 20.3253 26.6187 22.032 35.664 22.544L41.424 22.928V92.304C41.424 97.424 40.4853 101.264 38.608 103.824C36.7307 106.299 33.5307 107.536 29.008 107.536C26.704 107.536 24.784 107.28 23.248 106.768L23.504 105.488C25.3813 105.915 27.088 106.128 28.624 106.128C32.8907 106.128 35.792 105.019 37.328 102.8C38.864 100.581 39.632 97.0827 39.632 92.304ZM44.752 92.304V28.56C44.752 23.44 45.6907 19.6427 47.568 17.168C49.4453 14.608 52.6453 13.328 57.168 13.328C59.472 13.328 61.392 13.584 62.928 14.096L62.672 15.376C60.7947 14.9493 59.088 14.736 57.552 14.736C53.2853 14.736 50.384 15.8453 48.848 18.064C47.312 20.2827 46.544 23.7813 46.544 28.56V92.304C46.544 97.0827 47.312 100.581 48.848 102.8C50.384 105.019 53.2853 106.128 57.552 106.128C59.088 106.128 60.7947 105.915 62.672 105.488L62.928 106.768C61.392 107.28 59.472 107.536 57.168 107.536C52.6453 107.536 49.4453 106.299 47.568 103.824C45.6907 101.264 44.752 97.424 44.752 92.304ZM119.811 63.632C119.811 54.5867 116.782 48.528 110.723 45.456C105.774 47.6747 101.038 50.8747 96.515 55.056C92.0777 59.152 88.451 63.6747 85.635 68.624V97.424C85.635 103.227 89.3043 106.128 96.643 106.128C98.179 106.128 99.8857 105.915 101.763 105.488L102.019 106.64C100.483 107.237 98.435 107.536 95.875 107.536C93.315 107.536 90.9257 106.981 88.707 105.872C86.4883 104.763 85.1657 103.099 84.739 100.88C84.3123 103.099 82.9897 104.763 80.771 105.872C78.6377 106.981 76.291 107.536 73.731 107.536C71.171 107.536 69.123 107.237 67.587 106.64L67.843 105.488C69.7203 105.915 71.427 106.128 72.963 106.128C80.3017 106.128 83.971 103.227 83.971 97.424V62.736C83.971 51.3867 80.3017 45.712 72.963 45.712C70.7443 45.712 69.0803 46.0533 67.971 46.736L67.203 45.84C68.483 44.816 70.531 44.304 73.347 44.304C81.539 44.304 85.635 50.448 85.635 62.736V66.192C88.5363 61.1573 92.2483 56.72 96.771 52.88C101.294 49.04 105.987 46.0533 110.851 43.92C117.934 47.0773 121.475 53.776 121.475 64.016C121.475 64.4427 121.475 64.8267 121.475 65.168L120.835 91.92C120.835 92.5173 120.835 93.1147 120.835 93.712C120.835 97.8933 121.39 101.093 122.499 103.312C123.694 105.445 126.382 106.512 130.563 106.512C132.782 106.512 134.446 106.171 135.555 105.488L136.323 106.384C135.043 107.408 132.995 107.92 130.179 107.92C125.571 107.92 122.584 106.725 121.219 104.336C119.854 101.861 119.171 98.2773 119.171 93.584C119.171 93.072 119.171 92.5173 119.171 91.92L119.811 65.168C119.811 64.656 119.811 64.144 119.811 63.632ZM189.989 54.416V89.104C189.989 100.453 193.658 106.128 200.997 106.128C203.216 106.128 204.88 105.787 205.989 105.104L206.757 106C205.477 107.024 203.429 107.536 200.613 107.536C192.421 107.536 188.325 101.392 188.325 89.104V85.776C185.338 90.7253 181.541 95.1627 176.933 99.088C172.41 102.928 167.802 105.872 163.109 107.92C156.026 104.763 152.485 98.064 152.485 87.824C152.485 87.3973 152.485 87.0133 152.485 86.672L153.125 59.92C153.125 59.3227 153.125 58.7253 153.125 58.128C153.125 53.9467 152.528 50.7893 151.333 48.656C150.224 46.4373 147.578 45.328 143.397 45.328C141.178 45.328 139.514 45.6693 138.405 46.352L137.637 45.456C138.917 44.432 140.965 43.92 143.781 43.92C148.389 43.92 151.376 45.1573 152.741 47.632C154.106 50.0213 154.789 53.5627 154.789 58.256C154.789 58.768 154.789 59.3227 154.789 59.92L154.149 86.672C154.149 87.184 154.149 87.696 154.149 88.208C154.149 97.2533 157.178 103.312 163.237 106.384C168.101 104.165 172.752 101.008 177.189 96.912C181.712 92.7307 185.424 88.1653 188.325 83.216V54.416C188.325 48.6133 184.656 45.712 177.317 45.712C175.781 45.712 174.074 45.9253 172.197 46.352L171.941 45.2C173.477 44.6027 175.525 44.304 178.085 44.304C180.645 44.304 182.992 44.8587 185.125 45.968C187.344 47.0773 188.666 48.7413 189.093 50.96C189.52 48.7413 190.842 47.0773 193.061 45.968C195.28 44.8587 197.669 44.304 200.229 44.304C202.789 44.304 204.837 44.6027 206.373 45.2L206.117 46.352C204.24 45.9253 202.533 45.712 200.997 45.712C193.658 45.712 189.989 48.6133 189.989 54.416ZM233.594 45.328C228.986 49.3387 225.402 54.416 222.842 60.56C220.367 66.6187 219.13 72.8053 219.13 79.12C219.13 85.3493 220.581 90.9387 223.482 95.888C226.383 100.752 230.479 104.165 235.77 106.128C238.927 104.848 242.127 103.013 245.37 100.624C248.613 98.1493 251.258 95.5467 253.306 92.816L254.458 93.584C252.325 96.4 249.466 99.1733 245.882 101.904C242.383 104.549 238.927 106.555 235.514 107.92C229.882 105.872 225.445 102.203 222.202 96.912C218.959 91.6213 217.338 85.7333 217.338 79.248C217.338 72.7627 218.746 66.32 221.562 59.92C224.378 53.4347 228.218 48.1013 233.082 43.92C240.591 43.92 247.503 45.712 253.818 49.296L253.178 50.448C246.863 47.0347 240.335 45.328 233.594 45.328Z" fill="white"/>
</svg>
